<?xml version="1.0" encoding="UTF-8"?>
<svg width="230px" height="230px" viewBox="0 0 230 230" version="1.1" xmlns="http://www.w3.org/2000/svg" xmlns:xlink="http://www.w3.org/1999/xlink">
    <g id="dark" stroke="none" stroke-width="1" fill="none" fill-rule="evenodd">
        <path d="M100.465524,34.6951957 C97.6549246,37.4459168 95.7799977,39.9338784 93.4332923,43.0983718 C84.2866035,55.4325304 80.4013318,69.9790408 80.4013318,86.5033399 C80.4013318,127.498464 113.690939,160.731578 154.755751,160.731578 C166.649396,160.731578 177.890808,157.94378 187.86009,152.987031 C193.920793,149.973636 197.333593,146.534844 200.775911,148.077727 C203.78502,149.426441 206.324538,152.987031 204.236322,158.01061 C203.329638,160.191799 201.725731,163.287737 200.381575,165.498341 C198.274891,168.963001 196.687181,171.547514 194.308926,174.337477 C176.659884,195.041809 150.590376,208.276462 121.223366,208.276462 C68.0806683,208.276462 25,165.268903 25,112.21639 C25,71.5248384 49.8744465,36.4884601 82.405193,24.429758 C86.5808303,22.8819064 96.1121778,20.4220131 99.6761683,21.5737187 C103.276722,22.7372398 104.278868,25.3621707 104.223494,28.2380331 C104.190059,29.9745297 102.242409,32.9561666 100.465524,34.6951957 Z" id="moon" fill="#222222"></path>
    </g>
</svg>