<?xml version="1.0" ?><!DOCTYPE svg  PUBLIC '-//W3C//DTD SVG 1.1//EN'  'http://www.w3.org/Graphics/SVG/1.1/DTD/svg11.dtd'><svg enable-background="new 0 0 91 91" height="91px" id="Layer_1" version="1.1" viewBox="0 0 91 91" width="91px" xml:space="preserve" xmlns="http://www.w3.org/2000/svg" xmlns:xlink="http://www.w3.org/1999/xlink"><g><path d="M19.723,37.819l25.908,12.309c0.23,0.109,0.48,0.165,0.729,0.165s0.499-0.056,0.729-0.165L73,37.819   c0.593-0.281,0.971-0.879,0.971-1.535S73.593,35.03,73,34.749l-25.91-12.31c-0.461-0.22-0.998-0.22-1.459,0l-25.908,12.31   c-0.593,0.281-0.971,0.879-0.971,1.535S19.13,37.538,19.723,37.819z M46.36,25.856l21.948,10.428L46.36,46.711L24.414,36.284   L46.36,25.856z"/><path d="M73.807,45.933c-0.404-0.848-1.419-1.209-2.266-0.806L46.36,57.089L21.182,45.127c-0.85-0.403-1.861-0.042-2.266,0.806   c-0.402,0.85-0.041,1.862,0.807,2.266l25.908,12.309c0.23,0.109,0.48,0.164,0.729,0.164s0.499-0.055,0.729-0.164L73,48.198   C73.848,47.796,74.209,46.782,73.807,45.933z"/><path d="M73.807,56.312c-0.404-0.85-1.419-1.207-2.266-0.806L46.36,67.468L21.182,55.506c-0.85-0.401-1.861-0.044-2.266,0.806   c-0.402,0.849-0.041,1.861,0.807,2.266l25.908,12.309c0.23,0.109,0.48,0.164,0.729,0.164s0.499-0.055,0.729-0.164L73,58.577   C73.848,58.175,74.209,57.16,73.807,56.312z"/></g></svg>